<svg width="16" height="16" viewBox="0 0 16 16" version="1.1" xmlns="http://www.w3.org/2000/svg" xmlns:xlink="http://www.w3.org/1999/xlink" xml:space="preserve" xmlns:serif="http://www.serif.com/" style="fill-rule:evenodd;clip-rule:evenodd;stroke-linejoin:round;stroke-miterlimit:2;"><g transform="matrix(0.8,0,0,0.8,-2.22045e-15,-2.22045e-15)"><path d="M15,0L11,0C10.447,0 10,0.447 10,1L10.023,1.222C11.125,1.222 12.023,2.119 12.023,3.222L12.023,14.581L13,13.4L16,17L16,1C16,0.447 15.553,0 15,0ZM9.023,3L5,3C4.447,3 4,3.447 4,4L4,20L7,16.4L10,20L10,4C10,3.447 9.576,3 9.023,3Z" fill="rgb(244,124,0)" style="fill-rule:nonzero;"/></g></svg>