<svg width="15" height="14" viewBox="0 0 15 14" fill="none" xmlns="http://www.w3.org/2000/svg"><path d="M7.58691 0.506836C7.65924 0.517949 7.72914 0.54303 7.79199 0.581055C7.85531 0.619394 7.90745 0.669657 7.94824 0.726562L7.99512 0.803711L9.56445 3.90039V3.90137C9.65637 4.08247 9.79154 4.2381 9.95703 4.35547C10.1226 4.47282 10.3151 4.54847 10.5156 4.57715L14.0371 5.0791V5.08008C14.1102 5.0904 14.1799 5.11488 14.2432 5.15234L14.3115 5.2002L14.3711 5.25781C14.399 5.28929 14.4229 5.32392 14.4424 5.36133L14.4736 5.43652L14.4922 5.50879C14.4977 5.54132 14.5012 5.57426 14.5 5.60742L14.4844 5.71191C14.4611 5.80304 14.412 5.88729 14.3408 5.95508L11.7939 8.37305C11.6472 8.51246 11.5346 8.68591 11.4697 8.87988C11.4051 9.07338 11.3899 9.28006 11.4248 9.48047V9.48145L12.0254 12.8936L12.0332 12.9756C12.0343 13.0427 12.0222 13.1098 11.9961 13.1729C11.9594 13.2613 11.8976 13.3403 11.8154 13.3984C11.7332 13.4566 11.6337 13.4919 11.5293 13.499C11.4252 13.506 11.3221 13.4835 11.2314 13.4365L11.2285 13.4355L8.08398 11.8242H8.08301C7.947 11.7547 7.80031 11.7109 7.65039 11.6934L7.5 11.6846C7.29832 11.6846 7.09866 11.7319 6.91797 11.8242H6.91699L3.77051 13.4355L3.76855 13.4365C3.67676 13.4838 3.57404 13.5051 3.47168 13.498C3.39332 13.4926 3.31808 13.4712 3.25098 13.4365L3.18652 13.3975C3.10468 13.3394 3.04255 13.2611 3.00586 13.1729C2.97897 13.108 2.9667 13.0384 2.96875 12.9688L2.97852 12.877L3.57617 9.48242C3.61159 9.2809 3.59561 9.07391 3.53125 8.88086C3.4831 8.73665 3.40863 8.6021 3.31152 8.48438L3.29102 8.46094L3.22852 8.39355L3.20801 8.37305L0.660156 5.95703V5.95605L0.610352 5.90234C0.580397 5.86466 0.556192 5.8232 0.538086 5.7793L0.515625 5.71191C0.492574 5.62174 0.49593 5.52845 0.523438 5.44141L0.555664 5.3623C0.587251 5.30122 0.631706 5.24475 0.688477 5.19824C0.766298 5.13454 0.86222 5.09233 0.964844 5.07812H0.966797L4.48633 4.57715C4.49666 4.57567 4.50735 4.57439 4.51758 4.57227L4.60742 4.55273C4.61616 4.55092 4.62516 4.54916 4.63379 4.54688C4.74322 4.5179 4.84874 4.4741 4.94727 4.41699L5.04395 4.35547C5.20879 4.23875 5.34495 4.08376 5.4375 3.90137V3.90039L7.01172 0.791992L7.01074 0.791016C7.04336 0.727256 7.09113 0.67063 7.14844 0.624023L7.20898 0.581055C7.29275 0.530376 7.39021 0.501853 7.49023 0.5L7.58691 0.506836Z" stroke="currentColor" stroke-linecap="round" stroke-linejoin="round"/></svg>