<svg width="15" height="14" viewBox="0 0 15 14" fill="none" xmlns="http://www.w3.org/2000/svg"><path d="M7.64521 0.00973224C7.78864 0.029294 7.92673 0.0781327 8.05067 0.153121C8.17463 0.228117 8.28064 0.327177 8.36226 0.44379L8.4355 0.565767L10.0108 3.67489C10.0656 3.78294 10.1464 3.87646 10.2464 3.9474C10.3466 4.0184 10.4634 4.06482 10.586 4.08235L14.1073 4.58453C14.2518 4.60495 14.3888 4.65479 14.5115 4.72987L14.6293 4.81292L14.7332 4.91154C14.7978 4.9817 14.8519 5.06036 14.8943 5.14511L14.9489 5.27617L14.9842 5.41372C15.0094 5.5527 15.0045 5.69612 14.9695 5.83415C14.9229 6.01817 14.8245 6.18583 14.6852 6.31817L12.1379 8.73566C12.0492 8.81996 11.9826 8.92383 11.9442 9.03865C11.9059 9.15345 11.8968 9.27585 11.9176 9.39485L12.5181 12.807L12.5334 12.9484C12.5384 13.0901 12.5131 13.2319 12.4582 13.3643C12.3849 13.541 12.2622 13.6942 12.104 13.8062C11.9458 13.9181 11.7584 13.9843 11.5634 13.9976C11.3683 14.0108 11.1733 13.9703 11.0008 13.8808L7.8556 12.2691C7.746 12.2131 7.62382 12.1841 7.50007 12.1841C7.37646 12.1841 7.25468 12.2132 7.1452 12.2691L3.99802 13.8808C3.82553 13.9697 3.63143 14.0104 3.43676 13.9969C3.24218 13.9834 3.05526 13.9173 2.89747 13.8055C2.73965 13.6937 2.61712 13.5406 2.54394 13.3643C2.48903 13.2319 2.46374 13.0901 2.46871 12.9484L2.48335 12.8076L3.08389 9.3955C3.10482 9.27644 3.09557 9.15419 3.05726 9.0393C3.02851 8.95312 2.98405 8.87273 2.9261 8.80249L2.86352 8.73566L0.316214 6.31947C0.17675 6.18751 0.0783479 6.01992 0.0312568 5.8361C-0.0160314 5.65139 -0.00971638 5.45725 0.0505647 5.27617L0.105159 5.14446C0.168918 5.01698 0.259896 4.90352 0.37214 4.81162C0.521673 4.68921 0.703421 4.60992 0.896781 4.58324L4.41547 4.08235L4.50602 4.06353C4.59531 4.03989 4.67975 4.00068 4.75502 3.9474C4.85522 3.87645 4.93649 3.7831 4.99138 3.67489L6.5653 0.566416C6.65149 0.396716 6.78509 0.25305 6.95012 0.153121C7.11531 0.0531817 7.3063 0 7.50073 0L7.64521 0.00973224ZM11.1752 13.038V13.0347L11.1739 13.0295L11.1752 13.038ZM11.6386 12.7064L11.6419 12.7077L11.6373 12.7051L11.6386 12.7064ZM3.36086 12.7071L3.36286 12.7064L3.36486 12.7051L3.36086 12.7071Z" fill="currentColor"/></svg>